<?xml version="1.0" encoding="utf-8"?>
<!-- Generator: Adobe Illustrator 26.0.2, SVG Export Plug-In . SVG Version: 6.00 Build 0)  -->
<svg version="1.1" id="Camada_1" xmlns="http://www.w3.org/2000/svg" xmlns:xlink="http://www.w3.org/1999/xlink" x="0px" y="0px"
	 viewBox="0 0 80 111" style="enable-background:new 0 0 80 111;" xml:space="preserve">
<style type="text/css">
	.st0{fill:#FFFFFF;}
</style>
<path class="st0" d="M37.84,110.87c0.86,0.71,1.42,1.11,1.9,1.59c22.51,22.49,45.01,44.99,67.51,67.49
	c0.48,0.48,0.99,0.95,1.41,1.48c1,1.29,0.88,2.92-0.22,4.03c-1.1,1.11-2.75,1.22-4.03,0.24c-0.41-0.31-0.76-0.68-1.12-1.05
	c-23.63-23.63-47.26-47.25-70.89-70.88c-2.29-2.29-2.28-3.58,0.04-5.89c23.63-23.63,47.26-47.25,70.89-70.88
	c0.36-0.36,0.71-0.74,1.12-1.05c1.22-0.92,2.83-0.82,3.91,0.18c1.14,1.07,1.33,2.74,0.38,4.03c-0.37,0.5-0.84,0.93-1.28,1.37
	C84.87,64.13,62.29,86.71,39.7,109.28C39.22,109.76,38.67,110.16,37.84,110.87z"/>
</svg>
