<?xml version="1.0" encoding="utf-8"?>
<!-- Generator: Adobe Illustrator 26.0.2, SVG Export Plug-In . SVG Version: 6.00 Build 0)  -->
<svg version="1.1" id="Camada_1" xmlns="http://www.w3.org/2000/svg" xmlns:xlink="http://www.w3.org/1999/xlink" x="0px" y="0px"
	 viewBox="0 0 80 111" style="enable-background:new 0 0 80 111;" xml:space="preserve">
<style type="text/css">
	.st0{fill:#FFFFFF;}
</style>
<path class="st0" d="M104.68,105.99c-0.86-0.71-1.42-1.11-1.9-1.59C80.27,81.9,57.77,59.4,35.26,36.9
	c-0.48-0.48-0.99-0.95-1.41-1.48c-1-1.29-0.88-2.92,0.22-4.03c1.1-1.11,2.75-1.22,4.03-0.24c0.41,0.31,0.76,0.68,1.12,1.05
	c23.63,23.63,47.26,47.25,70.89,70.88c2.29,2.29,2.28,3.58-0.04,5.89c-23.63,23.63-47.26,47.25-70.89,70.88
	c-0.36,0.36-0.71,0.74-1.12,1.05c-1.22,0.92-2.83,0.82-3.91-0.18c-1.14-1.07-1.33-2.74-0.38-4.03c0.37-0.5,0.84-0.93,1.28-1.37
	c22.58-22.58,45.16-45.16,67.76-67.73C103.29,107.1,103.84,106.69,104.68,105.99z"/>
</svg>
